<svg xmlns="http://www.w3.org/2000/svg" width="100" height="100" viewBox="0 0 100 100"><path d="M45.627 33.88l26.859 10.268-20.336 18.823c-.665.616-1.043 1.479-1.043 2.386v11.471h-10.847c-1.795 0-3.251 1.455-3.251 3.25v6.094h34.77v-6.094c0-1.795-1.455-3.25-3.251-3.25h-10.92v-10.052l23.132-21.412c.826-.764 1.197-1.898.984-3.002-.213-1.103-.981-2.019-2.031-2.419l-31.786-12.151c-.19-.562-.495-1.094-.935-1.549l3.871-5.472c.749-.751.749-1.966 0-2.717l-3.664-3.663c-.751-.75-1.967-.75-2.717 0l-5.473 3.871c-1.617-1.565-4.195-1.556-5.792.043l-14.98 10.596 18.117 18.117 9.293-13.138z"/></svg>