<svg xmlns="http://www.w3.org/2000/svg" width="100" height="100" viewBox="0 0 100 100"><path d="M75.104 34.144c-1.549 0-2.805 1.256-2.805 2.804s1.256 2.804 2.805 2.804c1.548 0 2.803-1.255 2.803-2.804s-1.256-2.804-2.803-2.804zm-16.451-.843c0 1.145.928 2.072 2.071 2.072 1.146 0 2.073-.928 2.073-2.072s-.928-2.072-2.073-2.072c-1.143 0-2.071.927-2.071 2.072zm6.012 6.013c0 1.144.929 2.072 2.073 2.072s2.072-.928 2.072-2.072c0-1.145-.928-2.073-2.072-2.073s-2.073.929-2.073 2.073zm-12.026 0c0 1.144.928 2.072 2.072 2.072s2.072-.928 2.072-2.072c0-1.145-.928-2.073-2.072-2.073s-2.072.929-2.072 2.073zm6.014 6.014c0 1.145.928 2.072 2.071 2.072 1.146 0 2.073-.928 2.073-2.072 0-1.145-.928-2.073-2.073-2.073-1.143 0-2.071.928-2.071 2.073zm11.892-12.027c0 1.043.771 1.907 1.773 2.051v-4.103c-1.003.146-1.773 1.008-1.773 2.052zm15.508 28.261v34.473c0 1.552-1.26 2.811-2.809 2.811h-45.122c-1.551 0-2.809-1.259-2.809-2.811v-44.04h-19.39c-.609 0-1.172-.192-1.633-.522-.16-.1-.318-.244-.474-.428-.125-.143-.236-.297-.331-.462-1.933-3.103-3.341-12.659-3.341-23.966 0-13.087 1.886-23.827 4.29-24.933.431-.271.942-.428 1.489-.428h20.284v40.393c.259-.188.552-.35.876-.474.438-.168.826-.25 1.203-.269 1.69-.13 3.459.7 4.39 2.151l.118.201.081.152 2.203 3.898h4.255c.848-.259 1.465-1.048 1.465-1.981 0-1.021-.736-1.869-1.707-2.041v-7.946c.971-.173 1.707-1.02 1.707-2.041s-.736-1.868-1.707-2.041v-2.808c0-.931.754-1.686 1.686-1.686h19.846c.549 0 1.035.261 1.344.666l2.412 2.558c.239-.024.48-.037.727-.037 3.863 0 6.994 3.132 6.994 6.996s-3.131 6.996-6.994 6.996c-1.048 0-2.039-.229-2.932-.641-.931.203-1.627 1.033-1.627 2.025 0 .933.616 1.722 1.465 1.981h11.234c1.551 0 2.809 1.258 2.809 2.808v11.446h-.002z"/></svg>